<?xml version="1.0" encoding="UTF-8"?> <svg xmlns="http://www.w3.org/2000/svg" viewBox="0 0 100.00 100.00" data-guides="{&quot;vertical&quot;:[],&quot;horizontal&quot;:[]}"><defs></defs><path fill="#96cb01" stroke="none" fill-opacity="1" stroke-width="1" stroke-opacity="1" color="rgb(51, 51, 51)" fill-rule="evenodd" id="tSvgb9998311a9" title="Path 10" d="M67.0005 50.5005C67.0005 49.6721 66.3289 49.0005 65.5005 49.0005C61.0005 49.0005 56.5005 49.0005 52.0005 49.0005C52.0005 42.1672 52.0005 35.3338 52.0005 28.5005C52.0005 27.3458 50.7505 26.6241 49.7505 27.2015C49.2864 27.4694 49.0005 27.9646 49.0005 28.5005C49.0005 35.8338 49.0005 43.1672 49.0005 50.5005C49.0005 51.3289 49.6721 52.0005 50.5005 52.0005C55.5005 52.0005 60.5005 52.0005 65.5005 52.0005C66.3289 52.0005 67.0005 51.3289 67.0005 50.5005Z"></path><path fill="#96cb01" stroke="none" fill-opacity="1" stroke-width="1" stroke-opacity="1" color="rgb(51, 51, 51)" fill-rule="evenodd" id="tSvg11b99867ee" title="Path 11" d="M15.2705 44.3105C15.4956 44.3096 15.7177 44.2583 15.9205 44.1605C20.1272 42.1072 24.3338 40.0538 28.5405 38.0005C29.539 37.4206 29.5354 35.9772 28.5339 35.4024C28.1363 35.1742 27.6562 35.1403 27.2305 35.3105C24.0338 36.8738 20.8372 38.4372 17.6405 40.0005C25.7473 14.7018 58.2007 7.6661 76.0565 27.3361C79.4323 31.0549 81.9557 35.4657 83.4505 40.2605C83.8312 41.4885 84.1417 42.7372 84.3805 44.0005C84.5224 44.7008 85.1359 45.2058 85.8505 45.2105C85.9472 45.2105 86.0438 45.2105 86.1405 45.2105C86.9494 45.0444 87.4777 44.263 87.3305 43.4505C87.0743 42.0991 86.7404 40.7635 86.3305 39.4505C81.5329 23.6929 66.9722 12.944 50.5005 13.0005C34.3691 13.0586 20.0622 23.3737 14.9105 38.6605C13.4272 35.6205 11.9438 32.5805 10.4605 29.5405C10.0319 28.4683 8.6034 28.2621 7.8891 29.1693C7.5087 29.6524 7.4617 30.3188 7.7705 30.8505C9.8205 35.0572 11.8705 39.2638 13.9205 43.4705C14.1729 43.9856 14.6969 44.3116 15.2705 44.3105ZM93.3905 71.0005C91.3372 66.7805 89.2838 62.5605 87.2305 58.3405C86.8672 57.5994 85.9735 57.2911 85.2305 57.6505C81.0238 59.7005 76.8172 61.7505 72.6105 63.8005C71.5713 64.3086 71.4717 65.7511 72.4314 66.3971C72.8767 66.6969 73.4482 66.7363 73.9305 66.5005C76.9538 65.0238 79.9772 63.5472 83.0005 62.0705C74.1161 87.0985 41.4697 93.1234 24.2371 72.9153C20.3545 68.3623 17.7228 62.8779 16.6005 57.0005C16.3849 55.8458 15.0002 55.3574 14.108 56.1215C13.6939 56.476 13.5005 57.0246 13.6005 57.5605C18.9346 85.9387 52.9888 97.9007 74.898 79.0921C80.0089 74.7046 83.8439 69.0217 86.0005 62.6405C87.5672 65.8505 89.1338 69.0605 90.7005 72.2705C90.9481 72.7911 91.4739 73.1222 92.0505 73.1205C92.277 73.1209 92.5001 73.066 92.7005 72.9605C93.419 72.598 93.7235 71.7331 93.3905 71.0005Z"></path><path fill="#96cb01" stroke="none" fill-opacity="1" stroke-width="1" stroke-opacity="1" color="rgb(51, 51, 51)" fill-rule="evenodd" id="tSvg196c6948155" title="Path 12" d="M49.0005 72.5005C49.0005 74.8338 49.0005 77.1672 49.0005 79.5005C49.0005 80.6552 50.2505 81.3769 51.2505 80.7995C51.7146 80.5316 52.0005 80.0364 52.0005 79.5005C52.0005 77.1672 52.0005 74.8338 52.0005 72.5005C52.0005 71.3458 50.7505 70.6241 49.7505 71.2015C49.2864 71.4694 49.0005 71.9646 49.0005 72.5005ZM33.9105 64.4605C32.2605 66.1272 30.6105 67.7938 28.9605 69.4605C28.1994 70.3391 28.6748 71.7121 29.8163 71.9319C30.2709 72.0195 30.7405 71.8936 31.0905 71.5905C32.7405 69.9238 34.3905 68.2572 36.0405 66.5905C36.8016 65.7119 36.3261 64.3389 35.1847 64.1191C34.7301 64.0315 34.2604 64.1573 33.9105 64.4605Z"></path></svg> 