<?xml version="1.0" encoding="UTF-8"?> <svg xmlns="http://www.w3.org/2000/svg" viewBox="0 0 100.00 100.00" data-guides="{&quot;vertical&quot;:[],&quot;horizontal&quot;:[]}"><defs></defs><path fill="#96cb01" stroke="none" fill-opacity="1" stroke-width="1" stroke-opacity="1" color="rgb(51, 51, 51)" fill-rule="evenodd" id="tSvg46099835e0" title="Path 6" d="M50.7905 48.7905C33.2844 48.807 19.097 62.9944 19.0805 80.5005C19.0805 81.3289 19.7521 82.0005 20.5805 82.0005C40.7205 82.0005 60.8605 82.0005 81.0005 82.0005C81.8289 82.0005 82.5005 81.3289 82.5005 80.5005C82.4785 62.9967 68.2943 48.8125 50.7905 48.7905ZM22.1205 79.0005C23.2867 56.9303 47.9073 44.3989 66.4375 56.444C74.1355 61.4479 78.976 69.8318 79.4605 79.0005C60.3472 79.0005 41.2338 79.0005 22.1205 79.0005ZM50.2605 45.6705C60.3754 45.6595 68.574 37.4654 68.5905 27.3505C68.5905 26.8905 68.5905 26.4505 68.5205 26.0005C70.8538 26.0005 73.1872 26.0005 75.5205 26.0005C76.6752 26.0005 77.3969 24.7505 76.8195 23.7505C76.5516 23.2864 76.0564 23.0005 75.5205 23.0005C73.0138 23.0005 70.5072 23.0005 68.0005 23.0005C64.6441 9.3109 47.727 4.3883 37.5496 14.1398C27.3723 23.8913 31.5677 41.0033 45.1014 44.9414C46.7776 45.4291 48.5148 45.6746 50.2605 45.6705ZM50.2605 12.0205C57.0642 12.0093 63.0635 16.4783 65.0005 23.0005C55.1905 23.0005 45.3805 23.0005 35.5705 23.0005C37.4949 16.4881 43.4697 12.0141 50.2605 12.0205ZM35.0005 26.0005C45.1738 26.0005 55.3472 26.0005 65.5205 26.0005C65.5205 26.4405 65.5905 26.8905 65.5905 27.3505C65.2891 39.1477 52.3299 46.1947 42.2639 40.0351C37.8301 37.3219 35.0732 32.5468 34.9405 27.3505C34.9405 26.8905 34.9605 26.4405 35.0005 26.0005Z"></path><path fill="#96cb01" stroke="none" fill-opacity="1" stroke-width="1" stroke-opacity="1" color="rgb(51, 51, 51)" fill-rule="evenodd" id="tSvg368f37bbf8" title="Path 7" d="M63.5005 61.0005C58.4968 61.0005 55.3695 66.4172 57.8713 70.7505C60.3732 75.0838 66.6278 75.0838 69.1297 70.7505C69.7001 69.7624 70.0005 68.6415 70.0005 67.5005C69.995 63.9129 67.0881 61.006 63.5005 61.0005ZM63.5005 71.0005C60.8062 71.0005 59.1222 68.0838 60.4694 65.7505C61.8165 63.4172 65.1844 63.4172 66.5316 65.7505C66.8388 66.2826 67.0005 66.8861 67.0005 67.5005C67.0005 69.4335 65.4335 71.0005 63.5005 71.0005Z"></path></svg> 