<?xml version="1.0" encoding="UTF-8"?> <svg xmlns="http://www.w3.org/2000/svg" viewBox="0 0 100.00 100.00" data-guides="{&quot;vertical&quot;:[],&quot;horizontal&quot;:[]}"><defs></defs><path fill="#96cb01" stroke="none" fill-opacity="1" stroke-width="1" stroke-opacity="1" color="rgb(51, 51, 51)" fill-rule="evenodd" id="tSvg93a56107dc" title="Path 3" d="M18.2205 70.7025C18.2205 75.7345 22.3145 79.8295 27.3475 79.8295C32.3805 79.8295 36.4745 75.7345 36.4745 70.7025C36.4745 65.6705 32.3805 61.5755 27.3475 61.5755C22.3145 61.5755 18.2205 65.6695 18.2205 70.7025ZM33.4745 70.7025C33.4745 74.0805 30.7255 76.8295 27.3475 76.8295C23.9695 76.8295 21.2205 74.0805 21.2205 70.7025C21.2205 67.3245 23.9695 64.5755 27.3475 64.5755C30.7255 64.5755 33.4745 67.3245 33.4745 70.7025ZM90.2195 36.6185C89.6015 36.0667 88.6532 36.1205 88.1015 36.7385C80.8392 44.8728 73.5768 53.0072 66.3145 61.1415C62.5758 57.4028 58.8372 53.6642 55.0985 49.9255C54.2963 49.0949 52.8958 49.4442 52.5776 50.5542C52.4248 51.0873 52.5786 51.6612 52.9775 52.0465C57.0905 56.1592 61.2035 60.2718 65.3165 64.3845C65.5985 64.6665 65.9795 64.8235 66.3775 64.8235C66.3915 64.8232 66.4055 64.8228 66.4195 64.8225C66.8319 64.8108 67.2214 64.63 67.4965 64.3225C75.1112 55.7935 82.7258 47.2645 90.3405 38.7355C90.8913 38.1174 90.8372 37.1698 90.2195 36.6185Z"></path><path fill="#96cb01" stroke="none" fill-opacity="1" stroke-width="1" stroke-opacity="1" color="rgb(51, 51, 51)" fill-rule="evenodd" id="tSvg17c5fe7e584" title="Path 4" d="M66.8945 68.5745C66.0661 68.5745 65.3945 69.2461 65.3945 70.0745C65.3945 75.0502 65.3945 80.0258 65.3945 85.0015C47.6898 85.0015 29.9852 85.0015 12.2805 85.0015C12.2805 61.6682 12.2805 38.3348 12.2805 15.0015C29.9852 15.0015 47.6898 15.0015 65.3945 15.0015C65.3945 25.4772 65.3945 35.9528 65.3945 46.4285C65.3945 47.5832 66.6445 48.3049 67.6445 47.7275C68.1086 47.4596 68.3945 46.9644 68.3945 46.4285C68.3945 35.4528 68.3945 24.4772 68.3945 13.5015C68.3945 12.6731 67.7229 12.0015 66.8945 12.0015C48.1898 12.0015 29.4852 12.0015 10.7805 12.0015C9.9521 12.0015 9.2805 12.6731 9.2805 13.5015C9.2805 37.8348 9.2805 62.1682 9.2805 86.5015C9.2805 87.3299 9.9521 88.0015 10.7805 88.0015C29.4852 88.0015 48.1898 88.0015 66.8945 88.0015C67.7229 88.0015 68.3945 87.3299 68.3945 86.5015C68.3945 81.0258 68.3945 75.5502 68.3945 70.0745C68.3945 69.2461 67.7229 68.5745 66.8945 68.5745Z"></path><path fill="#96cb01" stroke="none" fill-opacity="1" stroke-width="1" stroke-opacity="1" color="rgb(51, 51, 51)" fill-rule="evenodd" id="tSvgffac0ec59d" title="Path 5" d="M49.3605 32.2265C50.5152 32.2265 51.2369 30.9765 50.6595 29.9765C50.3916 29.5124 49.8964 29.2265 49.3605 29.2265C39.3152 29.2265 29.2698 29.2265 19.2245 29.2265C18.0698 29.2265 17.3481 30.4765 17.9255 31.4765C18.1934 31.9406 18.6886 32.2265 19.2245 32.2265C29.2698 32.2265 39.3152 32.2265 49.3605 32.2265ZM51.2295 44.0705C51.2295 43.2421 50.5579 42.5705 49.7295 42.5705C39.6868 42.5705 29.6442 42.5705 19.6015 42.5705C18.4468 42.5705 17.7251 43.8205 18.3025 44.8205C18.5704 45.2846 19.0656 45.5705 19.6015 45.5705C29.6442 45.5705 39.6868 45.5705 49.7295 45.5705C50.5579 45.5705 51.2295 44.8989 51.2295 44.0705Z"></path></svg> 