<?xml version="1.0" encoding="UTF-8"?> <svg xmlns="http://www.w3.org/2000/svg" viewBox="0 0 100.00 100.00" data-guides="{&quot;vertical&quot;:[],&quot;horizontal&quot;:[]}"><defs></defs><path fill="#96cb01" stroke="none" fill-opacity="1" stroke-width="1" stroke-opacity="1" color="rgb(51, 51, 51)" fill-rule="evenodd" id="tSvge78ee7d260" title="Path 2" d="M58.6805 39.3205C58.8201 39.2545 58.9484 39.1667 59.0605 39.0605C67.0605 31.0605 75.0605 23.0605 83.0605 15.0605C83.8477 14.2157 83.4252 12.8355 82.2999 12.5762C81.8144 12.4643 81.305 12.6008 80.9405 12.9405C72.9405 20.9405 64.9405 28.9405 56.9405 36.9405C56.8236 37.0633 56.7289 37.2054 56.6605 37.3605C50.4505 32.3505 41.0505 33.0005 35.0005 39.0905C24.7038 46.7272 14.4072 54.3638 4.1105 62.0005C3.3824 62.5417 3.2977 63.6004 3.9305 64.2505C13.4938 74.0172 23.0572 83.7838 32.6205 93.5505C32.9023 93.838 33.2879 94.0002 33.6905 94.0005C33.7305 94.0005 33.7705 94.0005 33.8105 94.0005C34.2558 93.9662 34.6627 93.7353 34.9205 93.3705C42.5872 82.5805 50.2538 71.7905 57.9205 61.0005C60.9204 57.9196 62.5687 53.7701 62.5005 49.4705C62.468 45.7418 61.1145 42.1454 58.6805 39.3205ZM33.5105 90.1705C30.9272 87.5338 28.3438 84.8972 25.7605 82.2605C25.8685 82.2067 25.9693 82.1395 26.0605 82.0605C30.7272 77.3938 35.3938 72.7272 40.0605 68.0605C40.8477 67.2157 40.4252 65.8355 39.2999 65.5762C38.8144 65.4643 38.305 65.6008 37.9405 65.9405C33.2738 70.6072 28.6072 75.2738 23.9405 79.9405C23.8699 80.0265 23.8095 80.1205 23.7605 80.2205C21.4638 77.8872 19.1672 75.5538 16.8705 73.2205C16.9373 73.1824 17.0008 73.1389 17.0605 73.0905C21.7272 68.4238 26.3938 63.7572 31.0605 59.0905C31.8477 58.2457 31.4252 56.8655 30.2999 56.6062C29.8144 56.4943 29.305 56.6308 28.9405 56.9705C24.2738 61.6372 19.6072 66.3038 14.9405 70.9705C14.9002 71.0212 14.8634 71.0747 14.8305 71.1305C12.3138 68.5505 9.7972 65.9705 7.2805 63.3905C16.8538 56.2972 26.4272 49.2038 36.0005 42.1105C42.1472 48.2605 48.2938 54.4105 54.4405 60.5605C54.4605 60.5605 54.4805 60.5605 54.5005 60.5605C47.5038 70.4305 40.5072 80.3005 33.5105 90.1705ZM56.3405 58.1705C50.3405 52.1705 44.3405 46.1705 38.3405 40.1705C43.5705 35.9105 51.0405 35.9205 55.6705 40.4305C58.121 42.815 59.5147 46.0814 59.5405 49.5005C59.5701 52.6996 58.4324 55.7999 56.3405 58.1705ZM82.4105 40.8205C84.0695 43.3473 84.4401 46.5085 83.4105 49.3505C81.4105 54.8305 74.9305 57.8005 68.9305 55.9505C67.8258 55.6118 66.7687 56.5959 67.0277 57.7219C67.1479 58.2445 67.5378 58.6633 68.0505 58.8205C69.5087 59.2671 71.0255 59.493 72.5505 59.4905C78.5505 59.4905 84.2205 55.9505 86.2405 50.3605C87.5901 46.6356 87.1046 42.4925 84.9305 39.1805C84.3031 38.2105 82.861 38.2835 82.3347 39.3118C82.0904 39.789 82.1193 40.3603 82.4105 40.8205ZM89.5005 64.5905C88.7189 64.3101 87.8583 64.718 87.5805 65.5005C86.4876 68.3784 84.1889 70.6332 81.2905 71.6705C75.5105 73.8905 68.8005 71.5305 66.3405 66.4205C65.8892 65.3576 64.4565 65.1819 63.7617 66.1042C63.4087 66.5729 63.3613 67.2044 63.6405 67.7205C65.9705 72.5705 71.2705 75.4905 76.8105 75.4905C78.706 75.4989 80.5871 75.16 82.3605 74.4905C86.0691 73.1226 88.9926 70.1991 90.3605 66.4905C90.633 65.7289 90.2526 64.8883 89.5005 64.5905ZM79.5905 85.0905C76.9595 87.0647 73.6357 87.8776 70.3905 87.3405C67.3506 86.8756 64.6239 85.2115 62.8205 82.7205C61.2812 80.5644 60.6855 77.8749 61.1705 75.2705C61.3822 74.135 60.2853 73.1962 59.1961 73.5806C58.6907 73.759 58.3187 74.1935 58.2205 74.7205C57.5869 78.118 58.3631 81.6271 60.3705 84.4405C62.6396 87.5885 66.0758 89.6956 69.9105 90.2905C70.7171 90.4224 71.5331 90.4893 72.3505 90.4905C75.6166 90.5035 78.7976 89.4502 81.4105 87.4905C82.3622 86.8365 82.249 85.3976 81.2069 84.9004C80.6737 84.646 80.0409 84.7283 79.5905 85.0905Z"></path></svg> 