<?xml version="1.0" encoding="UTF-8"?> <svg xmlns="http://www.w3.org/2000/svg" viewBox="0 0 100.00 100.00" data-guides="{&quot;vertical&quot;:[],&quot;horizontal&quot;:[]}"><defs></defs><path fill="#96cb01" stroke="none" fill-opacity="1" stroke-width="1" stroke-opacity="1" color="rgb(51, 51, 51)" fill-rule="evenodd" id="tSvg9de5c2169a" title="Path 1" d="M84.841 75.491C75.311 65.6177 65.781 55.7443 56.251 45.871C62.081 40.041 67.911 34.211 73.741 28.381C74.801 29.441 75.861 30.501 76.921 31.561C77.2069 31.8473 77.5964 32.006 78.001 32.001C78.0577 32.001 78.1143 32.001 78.171 32.001C78.6252 31.9475 79.0302 31.6898 79.271 31.301C81.4443 27.8243 83.6177 24.3477 85.791 20.871C86.1642 20.2713 86.0684 19.4924 85.561 19.001C84.041 17.481 82.521 15.961 81.001 14.441C80.5061 13.9453 79.734 13.8581 79.141 14.231C75.6643 16.4043 72.1877 18.5777 68.711 20.751C67.8938 21.2608 67.762 22.3978 68.441 23.081C69.501 24.141 70.561 25.201 71.621 26.261C65.8043 32.0777 59.9877 37.8943 54.171 43.711C49.731 39.1143 45.291 34.5177 40.851 29.921C45.5737 19.1062 36.818 7.2344 25.0907 8.5519C24.3003 8.6406 23.5181 8.7908 22.751 9.001C21.6519 9.303 21.2779 10.6722 22.071 11.491C24.151 13.661 26.231 15.831 28.311 18.001C27.7677 19.9143 27.2243 21.8277 26.681 23.741C24.761 24.2243 22.841 24.7077 20.921 25.191C18.8443 23.041 16.7677 20.891 14.691 18.741C13.898 17.9227 12.5182 18.2526 12.181 19.341C10.5355 24.6939 11.9255 30.5181 15.811 34.551C20.0988 39.005 26.6527 40.4272 32.401 38.151C36.7143 42.6143 41.0277 47.0777 45.341 51.541C42.6743 54.2077 40.0077 56.8743 37.341 59.541C36.6277 58.8277 35.9143 58.1143 35.201 57.401C34.6154 56.8161 33.6666 56.8161 33.081 57.401C26.201 64.2677 19.321 71.1343 12.441 78.001C11.8561 78.5866 11.8561 79.5354 12.441 80.121C14.5743 82.2543 16.7077 84.3877 18.841 86.521C19.4266 87.1059 20.3754 87.1059 20.961 86.521C27.8277 79.681 34.6943 72.841 41.561 66.001C42.1459 65.4154 42.1459 64.4666 41.561 63.881C40.8477 63.1543 40.1343 62.4277 39.421 61.701C42.0877 59.0343 44.7543 56.3677 47.421 53.701C57.0877 63.701 66.7543 73.701 76.421 83.701C77.5039 84.8317 78.9955 85.4802 80.561 85.501C80.5943 85.501 80.6277 85.501 80.661 85.501C82.1939 85.504 83.6665 84.9042 84.761 83.831C87.0738 81.5448 87.1096 77.8211 84.841 75.491ZM79.721 17.401C80.681 18.361 81.641 19.321 82.601 20.281C80.971 22.8877 79.341 25.4943 77.711 28.101C75.7743 26.1643 73.8377 24.2277 71.901 22.291C74.5077 20.661 77.1143 19.031 79.721 17.401ZM19.901 83.401C18.4743 81.9677 17.0477 80.5343 15.621 79.101C21.781 72.941 27.941 66.781 34.101 60.621C35.5277 62.0477 36.9543 63.4743 38.381 64.901C32.221 71.0677 26.061 77.2343 19.901 83.401ZM82.621 81.701C82.0725 82.2339 81.3357 82.5287 80.571 82.521C79.8141 82.5039 79.0949 82.1875 78.571 81.641C63.6577 66.1943 48.7443 50.7477 33.831 35.301C33.3792 34.8387 32.6821 34.7178 32.101 35.001C27.3421 37.275 21.6619 36.2478 18.001 32.451C15.544 29.9009 14.2956 26.4214 14.571 22.891C16.181 24.5577 17.791 26.2243 19.401 27.891C19.7756 28.2781 20.3291 28.4346 20.851 28.301C23.331 27.6777 25.811 27.0543 28.291 26.431C28.801 26.3093 29.2105 25.9302 29.371 25.431C30.071 22.9643 30.771 20.4977 31.471 18.031C31.6174 17.518 31.4803 16.9659 31.111 16.581C29.4977 14.9143 27.8843 13.2477 26.271 11.581C35.7492 11.1653 42.1317 21.1552 37.771 29.581C37.4934 30.1348 37.5848 30.8022 38.001 31.261C52.8943 46.6977 67.7877 62.1343 82.681 77.571C83.7919 78.7254 83.7652 80.5595 82.621 81.701Z"></path></svg> 