<?xml version="1.0" encoding="UTF-8"?> <svg xmlns="http://www.w3.org/2000/svg" viewBox="0 0 100.00 100.00" data-guides="{&quot;vertical&quot;:[],&quot;horizontal&quot;:[]}"><defs></defs><path fill="#96cb01" stroke="none" fill-opacity="1" stroke-width="1" stroke-opacity="1" color="rgb(51, 51, 51)" fill-rule="evenodd" id="tSvgad06338fa2" title="Path 8" d="M65.2405 22.3205C65.839 23.308 67.2821 23.2772 67.838 22.2651C68.1135 21.7635 68.0796 21.1487 67.7505 20.6805C63.7032 14.5668 56.8321 10.9222 49.5005 11.0005C48.3458 11.0005 47.6241 12.2505 48.2015 13.2505C48.4694 13.7146 48.9646 14.0005 49.5005 14.0005C55.819 13.9233 61.7455 17.056 65.2405 22.3205Z"></path><path fill="#96cb01" stroke="none" fill-opacity="1" stroke-width="1" stroke-opacity="1" color="rgb(51, 51, 51)" fill-rule="evenodd" id="tSvg183e2739bb8" title="Path 9" d="M79.0005 32.3205C79.0005 16.6905 65.7805 4.0005 49.5005 4.0005C33.2205 4.0005 20.0005 16.6905 20.0005 32.3205C20.1249 43.077 26.3203 52.8386 36.0005 57.5305C36.0005 61.6872 36.0005 65.8438 36.0005 70.0005C35.1672 70.0005 34.3338 70.0005 33.5005 70.0005C32.6721 70.0005 32.0005 70.6721 32.0005 71.5005C32.0005 76.1672 32.0005 80.8338 32.0005 85.5005C32.0005 86.3289 32.6721 87.0005 33.5005 87.0005C34.8538 87.0005 36.2072 87.0005 37.5605 87.0005C38.1105 92.8705 43.4805 97.5005 50.0005 97.5005C56.5205 97.5005 61.8905 92.8705 62.4405 87.0005C63.7938 87.0005 65.1472 87.0005 66.5005 87.0005C67.3289 87.0005 68.0005 86.3289 68.0005 85.5005C68.0005 80.8338 68.0005 76.1672 68.0005 71.5005C68.0005 70.6721 67.3289 70.0005 66.5005 70.0005C65.3338 70.0005 64.1672 70.0005 63.0005 70.0005C63.0005 65.8438 63.0005 61.6872 63.0005 57.5305C72.6807 52.8386 78.876 43.077 79.0005 32.3205ZM50.0005 94.5005C45.1405 94.5005 41.1305 91.2205 40.5805 87.0005C46.8638 87.0005 53.1472 87.0005 59.4305 87.0005C58.8705 91.2205 54.8605 94.5005 50.0005 94.5005ZM65.0005 84.0005C55.0005 84.0005 45.0005 84.0005 35.0005 84.0005C35.0005 80.3338 35.0005 76.6672 35.0005 73.0005C45.0005 73.0005 55.0005 73.0005 65.0005 73.0005C65.0005 76.6672 65.0005 80.3338 65.0005 84.0005ZM47.2605 69.8505C46.0705 58.1305 44.8805 46.4105 43.6905 34.6905C47.1966 37.04 51.7744 37.04 55.2805 34.6905C54.0438 46.4072 52.8072 58.1238 51.5705 69.8405C51.5676 69.8938 51.5676 69.9472 51.5705 70.0005C50.1338 70.0005 48.6972 70.0005 47.2605 70.0005C47.2631 69.9505 47.2631 69.9005 47.2605 69.8505ZM54.5705 70.0005C55.9972 56.5038 57.4238 43.0072 58.8505 29.5105C58.9509 29.0134 59.0011 28.5076 59.0005 28.0005C59.0016 27.2023 58.3775 26.5431 57.5805 26.5005C56.7769 26.4426 56.0746 27.0382 56.0005 27.8405C55.9605 28.2272 55.9205 28.6138 55.8805 29.0005C55.3005 31.5205 52.6605 33.4205 49.5005 33.4205C46.3405 33.4205 43.6705 31.5405 43.1105 29.0005C43.0738 28.6172 43.0372 28.2338 43.0005 27.8505C42.9428 26.6958 41.6567 26.0366 40.6855 26.664C40.2348 26.9551 39.9737 27.4646 40.0005 28.0005C40.0006 28.4872 40.0475 28.9728 40.1405 29.4505C41.5138 42.9672 42.8872 56.4838 44.2605 70.0005C42.5072 70.0005 40.7538 70.0005 39.0005 70.0005C39.0005 65.5272 39.0005 61.0538 39.0005 56.5805C39.0021 55.9905 38.6577 55.4543 38.1205 55.2105C29.0426 51.1882 23.1375 42.2486 23.0005 32.3205C23.0005 18.3505 34.8805 7.0005 49.5005 7.0005C64.1205 7.0005 76.0005 18.3505 76.0005 32.3205C75.8673 42.2523 69.9616 51.1967 60.8805 55.2205C60.3465 55.4629 60.0028 55.9941 60.0005 56.5805C60.0005 61.0538 60.0005 65.5272 60.0005 70.0005C58.1905 70.0005 56.3805 70.0005 54.5705 70.0005Z"></path></svg> 